<?xml version="1.0" encoding="utf-8"?>
<svg xmlns="http://www.w3.org/2000/svg" viewBox="0 0 500 500">
    <path d="M 307.043 79.998 C 309.585 79.628 435.788 79.931 454.043 79.998 C 453.383 81.978 362.213 240.919 357.043 248.998 C 352.82 247.59 327.036 201.902 325.043 198.998 C 325.377 195.114 361.704 133.293 363.043 130.998 C 354.793 130.998 346.543 130.998 338.043 130.998 C 337.713 132.318 301.822 196.906 302.207 199.528 C 303.064 202.06 340.05 266.093 342.043 268.998 C 342.799 274.54 236.738 455.934 235.043 457.998 C 231.043 453.373 161.043 331.998 161.106 329.599 C 162.319 326.233 222.178 225.535 226.043 218.998 C 232.869 221.273 257.275 267.16 256.707 271.666 C 255.944 273.867 226.495 326.419 225.922 327.377 C 224.708 330.996 235.043 348.741 235.043 350.998 C 235.703 350.998 278.345 276.832 279.016 275.716 C 280.148 271.62 240.802 203.662 240.196 202.716 C 238.709 199.21 305.367 82.512 307.043 79.998 Z"
          fill="#10101B" />
    <path d="M 255.209 29.26 C 259.539 32.933 282.865 79.96 283.348 80.767 C 283.743 81.4 147.723 308.998 147.043 308.998 C 146.424 307.863 16.723 82.038 16.043 79.998 C 76.103 79.998 136.163 79.998 198.043 79.998 C 197.144 83.595 152.4 161.045 149.043 163.998 C 144.837 158.118 132.007 133.777 130.043 131.998 C 126.067 131.015 109.687 131.832 107.043 131.998 C 107.538 132.761 145.942 199.725 150.043 205.998 C 150.372 205.378 253.35 32.591 255.209 29.26 Z"
          fill="#10101B" />
</svg>