<?xml version="1.0" encoding="UTF-8"?>
<svg version="1.1" xmlns="http://www.w3.org/2000/svg" width="500" height="500">
    <path d="M0 0 C2.54184914 -0.36914349 2.54184914 -0.36914349 5.82119751 -0.36076355 C7.06082748 -0.36488754 8.30045746 -0.36901154 9.57765198 -0.3732605 C10.95883394 -0.36264236 12.34001373 -0.35173793 13.72119141 -0.34057617 C15.16974368 -0.33973032 16.61829723 -0.34020421 18.06684875 -0.34190369 C22.00679925 -0.34276672 25.94647742 -0.32509136 29.88636446 -0.30418181 C34.0010011 -0.2854662 38.11564353 -0.28366862 42.23031616 -0.28010559 C50.02536437 -0.27077004 57.82028681 -0.24613591 65.61527956 -0.21605712 C74.48817445 -0.18256 83.36107526 -0.16603892 92.23401761 -0.15097082 C110.48941646 -0.11958761 128.74469813 -0.06679787 147 0 C146.34 1.98 145.68 3.96 145 6 C144.34 6 143.68 6 143 6 C142.88914062 6.55905029 142.77828125 7.11810059 142.6640625 7.6940918 C141.89514964 10.36408515 140.74952519 12.47923507 139.375 14.89453125 C138.83713867 15.84360352 138.29927734 16.79267578 137.74511719 17.77050781 C137.16922852 18.77436523 136.59333984 19.77822266 136 20.8125 C135.12456543 22.35115723 135.12456543 22.35115723 134.23144531 23.92089844 C130.4586731 30.52791139 126.62002571 37.09183327 122.62890625 43.56958008 C121.11356675 46.04398143 119.9225881 48.23223571 119 51 C118.34 51 117.68 51 117 51 C116.88229248 51.57419678 116.76458496 52.14839355 116.64331055 52.73999023 C115.95303798 55.16498193 114.99011653 56.99295314 113.70703125 59.16015625 C113.01371704 60.34182373 113.01371704 60.34182373 112.30639648 61.54736328 C111.56691772 62.79235596 111.56691772 62.79235596 110.8125 64.0625 C109.79842714 65.78974736 108.78539761 67.51760772 107.7734375 69.24609375 C107.04592285 70.48721924 107.04592285 70.48721924 106.30371094 71.75341797 C104.79653803 74.35060993 103.35353191 76.97710218 101.9375 79.625 C99.1023829 84.89021747 96.06955507 90.02980372 93.02539062 95.17578125 C89.79448984 100.63902805 86.60767715 106.12632495 83.4375 111.625 C80.07678085 117.45166306 76.66965109 123.24510762 73.1875 129 C70.16918493 133.99268681 67.29267361 139.04037133 64.53125 144.1796875 C59.95520522 152.60801488 55.17021125 160.92154492 50 169 C45.7765258 167.59217527 44.66555742 164.55447275 42.5625 160.875 C42.18029297 160.22273437 41.79808594 159.57046875 41.40429688 158.8984375 C40.63851656 157.58790006 39.8788784 156.27375389 39.12548828 154.95605469 C38.37203619 153.64658437 37.60458334 152.34507578 36.82373047 151.05175781 C34 146.3244028 34 146.3244028 34 143 C33.34 143 32.68 143 32 143 C28 136.375 28 136.375 28 133 C27.34 133 26.68 133 26 133 C25.59007812 132.24074219 25.18015625 131.48148438 24.7578125 130.69921875 C24.21898437 129.70535156 23.68015625 128.71148437 23.125 127.6875 C22.59132813 126.70136719 22.05765625 125.71523437 21.5078125 124.69921875 C19.99277874 121.90413542 19.99277874 121.90413542 18 119 C18.33366882 115.11676469 19.73903148 112.3559717 21.73046875 109.05078125 C22.28669922 108.11943359 22.84292969 107.18808594 23.41601562 106.22851562 C24.00060547 105.26623047 24.58519531 104.30394531 25.1875 103.3125 C26.03538086 101.89807617 26.03538086 101.89807617 26.90039062 100.45507812 C28.59378074 97.63276126 30.29674918 94.81637373 32 92 C33.07367395 90.21139187 34.14662663 88.42235051 35.21875 86.6328125 C37.72535092 82.45210247 40.25759131 78.28745569 42.80078125 74.12890625 C44.12989008 71.92713772 44.12989008 71.92713772 45 69 C45.66 69 46.32 69 47 69 C47.12689209 68.4112207 47.25378418 67.82244141 47.38452148 67.21582031 C48.34421548 63.76076964 50.25681879 60.81940881 52.0625 57.75 C53.361875 55.5225 54.66125 53.295 56 51 C47.75 51 39.5 51 31 51 C30.67 52.32 30.34 53.64 30 55 C29.23024701 56.60392551 28.41109871 58.18457782 27.55859375 59.74609375 C27.06166016 60.65875 26.56472656 61.57140625 26.05273438 62.51171875 C25.25319336 63.95998047 25.25319336 63.95998047 24.4375 65.4375 C23.89029297 66.43523437 23.34308594 67.43296875 22.77929688 68.4609375 C19.40326589 74.57676278 15.87454494 80.53229938 12.14453125 86.4375 C7.51942459 93.9535813 3.48627449 101.84564252 -0.68481445 109.61914062 C-2 112 -2 112 -3.72729492 114.49023438 C-5.2215067 116.90885521 -5.2215067 116.90885521 -4.83569336 119.5300293 C-3.97891921 122.06230626 -2.96473857 124.20483276 -1.62890625 126.51953125 C-1.14180176 127.36918457 -0.65469727 128.21883789 -0.15283203 129.09423828 C0.37197754 129.99126465 0.89678711 130.88829102 1.4375 131.8125 C1.9752002 132.74304199 2.51290039 133.67358398 3.06689453 134.63232422 C6.78673012 141.03096797 10.65447585 147.32440058 14.61083984 153.57861328 C23.95520544 168.39079395 23.95520544 168.39079395 25 175 C25.66 175 26.32 175 27 175 C27.40992188 175.75925781 27.81984375 176.51851562 28.2421875 177.30078125 C28.78101563 178.29464844 29.31984375 179.28851563 29.875 180.3125 C30.40867187 181.29863281 30.94234375 182.28476562 31.4921875 183.30078125 C33.00722126 186.09586458 33.00722126 186.09586458 35 189 C35.75584653 194.54287459 33.89725234 197.47304321 31 202 C30.34 202 29.68 202 29 202 C28.8153418 202.87289673 28.8153418 202.87289673 28.62695312 203.76342773 C27.9905054 206.03387074 27.14856943 207.7503839 25.96875 209.78515625 C25.57042969 210.48060547 25.17210937 211.17605469 24.76171875 211.89257812 C24.34535156 212.60865234 23.92898438 213.32472656 23.5 214.0625 C22.67470794 215.48951428 21.85169582 216.91785018 21.03125 218.34765625 C20.48307617 219.29137085 20.48307617 219.29137085 19.92382812 220.25415039 C18.85759695 222.15353833 18.85759695 222.15353833 18 225 C17.34 225 16.68 225 16 225 C15.89131592 225.5554248 15.78263184 226.11084961 15.6706543 226.68310547 C14.8788123 229.41866447 13.68051338 231.59582044 12.26953125 234.0703125 C11.71330078 235.05 11.15707031 236.0296875 10.58398438 237.0390625 C9.99939453 238.05742187 9.41480469 239.07578125 8.8125 240.125 C7.96461914 241.61773437 7.96461914 241.61773437 7.09960938 243.140625 C3.92431387 248.71285033 0.67739955 254.23598383 -2.63598633 259.72705078 C-4.55113261 262.91838994 -6.40825756 266.14090028 -8.25 269.375 C-8.75660156 270.25865234 -8.75660156 270.25865234 -9.2734375 271.16015625 C-10.93360867 274.06872385 -12.54379367 276.9835726 -14 280 C-14.66 280 -15.32 280 -16 280 C-16.07863281 280.67417969 -16.15726563 281.34835937 -16.23828125 282.04296875 C-17.22833575 285.88641111 -19.13372521 288.96208769 -21.1875 292.3125 C-22.09717688 293.82632884 -23.00597938 295.34068334 -23.9140625 296.85546875 C-24.4080957 297.6757959 -24.90212891 298.49612305 -25.41113281 299.34130859 C-28.3402345 304.24264808 -31.19493854 309.18749747 -34.0625 314.125 C-38.44902287 321.66578302 -42.86044427 329.18821944 -47.42407227 336.62353516 C-48.91868431 339.0794636 -50.08586051 341.25758153 -51 344 C-51.66 344 -52.32 344 -53 344 C-53.09796875 344.54398437 -53.1959375 345.08796875 -53.296875 345.6484375 C-54.18883117 348.63153535 -55.63492427 350.96363609 -57.25 353.625 C-60.4341028 358.96904057 -63.30851975 364.39378308 -66 370 C-66.66 370 -67.32 370 -68 370 C-68.103125 370.5775 -68.20625 371.155 -68.3125 371.75 C-69.09792798 374.32049158 -70.30504197 375.93657284 -72 378 C-76 373.375 -76 373.375 -76 370 C-76.66 370 -77.32 370 -78 370 C-79.42436585 367.38866262 -80.84824096 364.777076 -82.26953125 362.1640625 C-83.40324943 360.09112406 -84.54616392 358.02318269 -85.69921875 355.9609375 C-86.23160156 355.00445312 -86.76398438 354.04796875 -87.3125 353.0625 C-87.80363281 352.18722656 -88.29476562 351.31195313 -88.80078125 350.41015625 C-89.87804128 348.24510922 -90.53427233 346.36151326 -91 344 C-91.66 344 -92.32 344 -93 344 C-93.34901367 343.35095703 -93.69802734 342.70191406 -94.05761719 342.03320312 C-97.9861705 334.77375183 -102.07902892 327.62246332 -106.25 320.5 C-106.87390625 319.43007813 -107.4978125 318.36015625 -108.140625 317.2578125 C-111.45961039 311.56021897 -111.45961039 311.56021897 -115 306 C-115 305.01 -115 304.02 -115 303 C-115.66 303 -116.32 303 -117 303 C-117.35191406 302.34515625 -117.70382813 301.6903125 -118.06640625 301.015625 C-121.38334761 294.88404671 -124.82184286 288.83943792 -128.3515625 282.828125 C-130.15145845 279.74015185 -131.88782281 276.62208886 -133.61328125 273.4921875 C-135.42756423 270.23158879 -137.27441528 266.99010083 -139.125 263.75 C-139.46200928 263.15912598 -139.79901855 262.56825195 -140.14624023 261.95947266 C-141.62708874 259.3700949 -143.10679955 256.84557988 -144.8046875 254.390625 C-146 252 -146 252 -145.9375 249.6015625 C-144.72431821 246.23498303 -142.94511007 243.35387487 -141 240.375 C-138.09316341 235.89917129 -138.09316341 235.89917129 -136 231 C-135.34 231 -134.68 231 -134 231 C-133.88068115 230.42596436 -133.7613623 229.85192871 -133.63842773 229.26049805 C-132.96002123 226.8584461 -132.02101971 224.99757689 -130.78515625 222.83203125 C-130.33543457 222.0426416 -129.88571289 221.25325195 -129.42236328 220.43994141 C-127.12690118 216.50227436 -124.79455687 212.58857829 -122.4375 208.6875 C-121.37883697 206.92972923 -120.32024532 205.17191545 -119.26171875 203.4140625 C-118.45420166 202.07456543 -118.45420166 202.07456543 -117.63037109 200.70800781 C-116.02691226 198.04470062 -114.42847672 195.37845365 -112.83203125 192.7109375 C-108.44793391 185.38664024 -104.05937212 178.06824114 -99.5625 170.8125 C-97.09400511 166.81949497 -94.73971927 162.79815202 -92.49609375 158.67578125 C-88.78946192 152.04642667 -84.86549608 145.53756716 -81 139 C-74.17463113 141.27512296 -70.73222161 151.19128943 -67.51171875 157.2265625 C-66.01603534 159.97058115 -64.43613203 162.64252734 -62.8125 165.3125 C-57 174.92372047 -57 174.92372047 -57 179 C-56.34 179 -55.68 179 -55 179 C-49.76860987 187.16233184 -49.76860987 187.16233184 -50.3359375 191.66796875 C-51.09889686 193.86935149 -51.93466184 195.92934272 -53 198 C-53.66 198 -54.32 198 -55 198 C-55.11859375 198.56074219 -55.2371875 199.12148438 -55.359375 199.69921875 C-57.88304208 208.76287675 -63.82817994 217.31148791 -68.4375 225.4375 C-69.2879187 226.94231934 -69.2879187 226.94231934 -70.15551758 228.47753906 C-72.56014393 232.72692938 -74.97056845 236.96888388 -77.46875 241.1640625 C-78.44328125 242.84628906 -78.44328125 242.84628906 -79.4375 244.5625 C-79.99308594 245.49191406 -80.54867187 246.42132813 -81.12109375 247.37890625 C-82.33492949 250.99883416 -81.58165163 252.56219522 -80 256 C-78.66775202 258.30066921 -77.32174532 260.52620419 -75.875 262.75 C-72 268.74351211 -72 268.74351211 -72 271 C-71.34 271 -70.68 271 -70 271 C-69.75765625 270.15824219 -69.5153125 269.31648438 -69.265625 268.44921875 C-67.85119387 264.59445737 -65.91488379 261.27478982 -63.75 257.8125 C-60.47689745 252.47610488 -57.36863526 247.09547343 -54.4140625 241.57421875 C-52.45626057 238.01015391 -50.33790448 234.5515726 -48.19921875 231.09375 C-46.86522163 228.92416581 -46.86522163 228.92416581 -46 226 C-45.34 226 -44.68 226 -44 226 C-43.90074219 225.28070313 -43.80148437 224.56140625 -43.69921875 223.8203125 C-42.90573372 220.6197751 -41.65568711 218.60112662 -39.8125 215.875 C-36.22467057 210.40853298 -32.93856093 204.84334529 -30 199 C-29.34902344 197.9171875 -28.69804687 196.834375 -28.02734375 195.71875 C-26.89566065 191.62231537 -26.98443915 191.21394458 -28.89453125 187.703125 C-29.84104312 186.20194393 -30.81483435 184.71768272 -31.8125 183.25 C-32.78255651 181.75858592 -33.7476415 180.263923 -34.70703125 178.765625 C-35.1450708 178.11368164 -35.58311035 177.46173828 -36.03442383 176.79003906 C-37 175 -37 175 -37 172 C-37.66 172 -38.32 172 -39 172 C-39.3403125 171.29617188 -39.680625 170.59234375 -40.03125 169.8671875 C-43.72713628 162.33780216 -47.75360985 155.04172374 -51.96337891 147.79101562 C-52.99696522 146.00524332 -54.02165223 144.21468961 -55.04296875 142.421875 C-55.37772217 141.8345459 -55.71247559 141.2472168 -56.05737305 140.64208984 C-57.05086507 138.8954551 -58.04107757 137.14695627 -59.03125 135.3984375 C-60.34539006 133.12998144 -61.70009323 130.88455294 -63.09375 128.6640625 C-63.7434375 127.61992187 -64.393125 126.57578125 -65.0625 125.5 C-65.65160156 124.5821875 -66.24070312 123.664375 -66.84765625 122.71875 C-68.33370576 119.21268066 -68.10126686 117.63280977 -67 114 C-65.69503829 111.50489081 -64.37358229 109.18200862 -62.875 106.8125 C-62.47047607 106.15540039 -62.06595215 105.49830078 -61.64916992 104.82128906 C-59.24795068 100.93580878 -56.78326144 97.09156421 -54.3125 93.25 C-50.92653525 87.97600882 -47.93914662 82.53251128 -45 77 C-41.48646039 70.38627838 -37.77720103 64.0175066 -33.70703125 57.73046875 C-32.08576003 55.13717679 -30.62068267 52.51334284 -29.1875 49.8125 C-26.65722191 45.07077243 -23.87339553 40.53763903 -21 36 C-17.64295185 30.69153984 -14.45890563 25.35274258 -11.5078125 19.8046875 C-9.64380002 16.33743113 -7.70326648 12.91755793 -5.75 9.5 C-5.4082373 8.89978027 -5.06647461 8.29956055 -4.71435547 7.68115234 C-3.2142159 5.05983223 -1.67631057 2.51446586 0 0 Z "
          fill="#10101B" transform="translate(322,93)"/>
    <path d="M0 0 C4.32933976 3.67337919 6.56633736 8.31852663 9.1875 13.25 C10.16207041 15.0537584 11.13734053 16.8571389 12.11328125 18.66015625 C12.59748535 19.55879395 13.08168945 20.45743164 13.58056641 21.38330078 C15.63734995 25.17494269 17.75238273 28.93244902 19.875 32.6875 C20.24117432 33.34113525 20.60734863 33.99477051 20.98461914 34.66821289 C22.52055286 37.40719467 24.07644034 40.12623176 25.703125 42.8125 C26.17234375 43.59625 26.6415625 44.38 27.125 45.1875 C27.51945312 45.82042969 27.91390625 46.45335937 28.3203125 47.10546875 C29.28946771 49.80684965 28.85836259 51.26848165 28 54 C26.90470359 56.16265159 25.72783937 58.28474964 24.5 60.375 C23.96705322 61.2880188 23.96705322 61.2880188 23.42333984 62.21948242 C22.29125904 64.15182724 21.14772182 66.07690886 20 68 C19.6380957 68.6069873 19.27619141 69.21397461 18.90332031 69.83935547 C17.05872337 72.92726731 15.20492188 76.00953928 13.34765625 79.08984375 C9.60855574 85.30180301 5.95204856 91.56252878 2.28369141 97.81640625 C0.97858687 100.03642432 -0.33219315 102.25300126 -1.64453125 104.46875 C-6.24214556 112.239137 -10.76287686 120.02525198 -15 128 C-15.66 128 -16.32 128 -17 128 C-17.13728516 128.79083984 -17.13728516 128.79083984 -17.27734375 129.59765625 C-18.25493342 132.84748136 -19.86008095 135.50240961 -21.5625 138.4375 C-21.91675049 139.05077148 -22.27100098 139.66404297 -22.63598633 140.29589844 C-25.07727393 144.49635709 -27.61575417 148.62836172 -30.1875 152.75 C-33.46656021 158.02107312 -36.36238467 163.38238659 -39 169 C-39.66 169 -40.32 169 -41 169 C-41.12503906 169.58265625 -41.25007812 170.1653125 -41.37890625 170.765625 C-43.50198923 178.40338265 -49.07366465 185.33736545 -53.27294922 191.9909668 C-56.18524533 196.62908807 -58.87858618 201.33474104 -61.44921875 206.171875 C-63.69436064 210.26628993 -66.12261284 214.2443305 -68.54101562 218.23803711 C-71.11466976 222.4978227 -73.61336544 226.79256751 -76.0625 231.125 C-78.59532429 235.60163421 -81.21701093 240.00931399 -83.9375 244.375 C-86.92615883 249.18258818 -89.74891115 254.05487069 -92.5 259 C-95.407703 264.21047298 -98.35399936 269.39117421 -101.4375 274.5 C-102.07558594 275.5621875 -102.71367187 276.624375 -103.37109375 277.71875 C-103.90863281 278.4715625 -104.44617188 279.224375 -105 280 C-105.66 280 -106.32 280 -107 280 C-107.61875 278.865625 -108.2375 277.73125 -108.875 276.5625 C-110.70727536 273.24316058 -112.60625525 269.97228635 -114.55859375 266.72265625 C-115.01057129 265.96718506 -115.46254883 265.21171387 -115.92822266 264.43334961 C-116.84562415 262.90353812 -117.76842259 261.37694923 -118.69677734 259.85375977 C-119.33607178 258.78532837 -119.33607178 258.78532837 -119.98828125 257.6953125 C-120.37540283 257.05609863 -120.76252441 256.41688477 -121.16137695 255.75830078 C-122 254 -122 254 -122 251 C-122.66 251 -123.32 251 -124 251 C-124.49306641 250.08734375 -124.49306641 250.08734375 -124.99609375 249.15625 C-131.47124908 237.22371444 -138.12799095 225.40567029 -145.04882812 213.72607422 C-147.43185839 209.69530154 -149.77876356 205.64673619 -152.08984375 201.57421875 C-152.61537842 200.64826904 -153.14091309 199.72231934 -153.68237305 198.76831055 C-154.69591121 196.97847887 -155.70668375 195.18707703 -156.71411133 193.39379883 C-159.51991423 188.4395855 -162.51168845 183.69162909 -165.70507812 178.97900391 C-167.2392418 176.63437141 -168.46044347 174.23447228 -169.625 171.6875 C-173.27870971 164.1577649 -177.65723961 157.07723627 -182 149.9296875 C-182.73089844 148.7245752 -182.73089844 148.7245752 -183.4765625 147.49511719 C-184.54508137 145.74507506 -185.62414091 144.00144579 -186.7109375 142.26269531 C-187.26007813 141.37420898 -187.80921875 140.48572266 -188.375 139.5703125 C-188.87773437 138.76609863 -189.38046875 137.96188477 -189.8984375 137.13330078 C-191 135 -191 135 -191 132 C-191.66 132 -192.32 132 -193 132 C-198.777833 121.52286282 -198.777833 121.52286282 -201.0625 116.8125 C-202.78874168 113.27261201 -204.84839916 110.02632294 -207.046875 106.76171875 C-208 105 -208 105 -208 102 C-208.66 102 -209.32 102 -210 102 C-210.32871094 101.3915625 -210.65742188 100.783125 -210.99609375 100.15625 C-214.06515322 94.50053066 -217.16954626 88.86494748 -220.3125 83.25 C-220.68810059 82.57880127 -221.06370117 81.90760254 -221.45068359 81.21606445 C-223.43768946 77.69044786 -225.46894032 74.20016203 -227.578125 70.74609375 C-227.99408936 70.06450195 -228.41005371 69.38291016 -228.83862305 68.68066406 C-229.63852229 67.37797557 -230.44443901 66.07895789 -231.25708008 64.78417969 C-234 60.32624402 -234 60.32624402 -234 57 C-234.66 57 -235.32 57 -236 57 C-236.66 55.02 -237.32 53.04 -238 51 C-177.94 51 -117.88 51 -56 51 C-56.89922906 54.59691623 -57.89488111 56.86021772 -59.6953125 60.03515625 C-60.24703125 61.01033203 -60.79875 61.98550781 -61.3671875 62.99023438 C-61.94726562 64.00408203 -62.52734375 65.01792969 -63.125 66.0625 C-63.681875 67.04927734 -64.23875 68.03605469 -64.8125 69.05273438 C-68.19978543 75.0117031 -71.76007564 80.82372989 -75.46923828 86.5871582 C-77.22401411 89.35309912 -78.83411101 92.17226899 -80.375 95.0625 C-81.09816406 96.41021484 -81.09816406 96.41021484 -81.8359375 97.78515625 C-82.57068396 99.183147 -83.29370962 100.58741925 -84 102 C-84.66 102 -85.32 102 -86 102 C-86.12890625 102.58362305 -86.2578125 103.16724609 -86.390625 103.76855469 C-88.23503501 110.52252402 -92.48435082 116.75208943 -96 122.75 C-96.63808594 123.86181641 -96.63808594 123.86181641 -97.2890625 124.99609375 C-99.52149742 128.8104074 -101.64312918 132.04719697 -105 135 C-109.20651251 129.12044274 -112.71197976 122.9952307 -116.01953125 116.58178711 C-116.65762096 115.35284333 -117.31141993 114.1319358 -117.98022461 112.91943359 C-119 111 -119 111 -119.94360352 108.77197266 C-121.09218366 106.39154755 -122.03652993 104.77961305 -124 103 C-127.9763147 102.01723171 -131.74800534 102.2417792 -135.8125 102.5 C-136.88693359 102.53609375 -137.96136719 102.5721875 -139.06835938 102.609375 C-141.71588793 102.70350935 -144.35611006 102.83481644 -147 103 C-146.505 103.763125 -146.01 104.52625 -145.5 105.3125 C-144 108 -144 108 -144 111 C-143.34 111 -142.68 111 -142 111 C-141.64808594 111.65484375 -141.29617187 112.3096875 -140.93359375 112.984375 C-136.68982077 120.82926082 -132.27697088 128.57041482 -127.66796875 136.20703125 C-125 140.68507067 -125 140.68507067 -125 144 C-124.34 144 -123.68 144 -123 144 C-122.125 145.60416667 -121.25 147.20833333 -120.375 148.8125 C-119.82457031 149.81925781 -119.27414063 150.82601562 -118.70703125 151.86328125 C-117.6337713 153.83542711 -116.56759805 155.81146298 -115.51171875 157.79296875 C-111.97406035 164.40104765 -108.10114678 170.72694413 -104 177 C-103.67128906 176.37996094 -103.34257812 175.75992188 -103.00390625 175.12109375 C-99.65853374 168.89271729 -96.12204063 162.81133692 -92.46142578 156.76586914 C-89.88684574 152.50484772 -87.38731129 148.20881552 -84.9375 143.875 C-82.33935142 139.29337418 -79.65748297 134.7845362 -76.875 130.3125 C-72.96976751 124.02715539 -69.31009467 117.62018934 -66 111 C-65.34 111 -64.68 111 -64 111 C-63.87109375 110.41009277 -63.7421875 109.82018555 -63.609375 109.21240234 C-62.65132534 105.73409863 -60.77919867 102.73794751 -59 99.625 C-58.60063232 98.91964111 -58.20126465 98.21428223 -57.78979492 97.48754883 C-54.76139116 92.19510639 -51.52695963 87.06378468 -48.18359375 81.96630859 C-44.41002098 76.18049821 -41.08795653 70.17591307 -38 64 C-37.34 64 -36.68 64 -36 64 C-35.80531128 63.11598511 -35.80531128 63.11598511 -35.60668945 62.21411133 C-34.66719516 58.78542974 -32.88212276 55.79072027 -31.1875 52.6875 C-30.67219727 51.7294043 -30.67219727 51.7294043 -30.14648438 50.75195312 C-27.83019298 46.46268557 -25.43201663 42.22460416 -23 38 C-22.34 38 -21.68 38 -21 38 C-20.90847656 37.47277344 -20.81695312 36.94554687 -20.72265625 36.40234375 C-19.74506658 33.15251864 -18.13991905 30.49759039 -16.4375 27.5625 C-16.08397461 26.95140381 -15.73044922 26.34030762 -15.36621094 25.71069336 C-12.25946212 20.37139803 -9.02455045 15.1148273 -5.765625 9.8671875 C-3.76478954 6.61804319 -1.85946522 3.33154185 0 0 Z "
          fill="#10101B" transform="translate(269,42)"/>
</svg>
